<?xml version="1.0" encoding="UTF-8"?>
<svg id="Layer_2" data-name="Layer 2" xmlns="http://www.w3.org/2000/svg" width="502.5" height="108.9" viewBox="0 0 502.5 108.9">
  <defs>
    <style>
      .cls-1 {
        fill: #e6e1c3;
        stroke-width: 0px;
      }
    </style>
  </defs>
  <g id="Layer_1-2" data-name="Layer 1">
    <g>
      <path class="cls-1" d="m21.6,108.9h-1.5c-2.6,0-5.1-.25-7.5-.75-2.4-.5-4.53-1.4-6.38-2.7-1.85-1.3-3.35-3.1-4.5-5.4-1.15-2.3-1.73-5.3-1.73-9V18c0-3.6.55-6.55,1.65-8.85,1.1-2.3,2.55-4.12,4.35-5.48s3.85-2.3,6.15-2.85c2.3-.55,4.65-.82,7.05-.82h2.4v108.9ZM56.7,33.3c0,3.8-.75,6.9-2.25,9.3-1.5,2.4-3.33,4.3-5.48,5.7-2.15,1.4-4.48,2.38-6.98,2.93-2.5.55-4.7.82-6.6.82-.7,0-1.33-.02-1.88-.07-.55-.05-1.08-.12-1.57-.23v-26.55c0-1.1-.03-2.22-.08-3.38-.05-1.15-.23-2.2-.52-3.15-.3-.95-.75-1.73-1.35-2.32-.6-.6-1.5-.9-2.7-.9-1.6,0-2.55.5-2.85,1.5-.3-1.3-.45-2.6-.45-3.9s.2-2.7.6-4.2c.4-1.5,1.12-2.9,2.17-4.2,1.05-1.3,2.42-2.4,4.12-3.3,1.7-.9,3.9-1.35,6.6-1.35,6,0,10.7,1.95,14.1,5.85,3.4,3.9,5.1,8.7,5.1,14.4v13.05Zm0,55.35c0,6.3-1.63,11.25-4.88,14.85-3.25,3.6-7.88,5.4-13.88,5.4-4.2,0-7.58-1.02-10.12-3.08-2.55-2.05-3.83-5.07-3.83-9.07,0-.7.08-1.52.23-2.48.15-.95.38-1.82.67-2.62.4,1.2,1.2,1.8,2.4,1.8s2.1-.3,2.7-.9,1.05-1.37,1.35-2.32c.3-.95.47-2,.52-3.15.05-1.15.08-2.27.08-3.38v-29.7c.5-.1,1.02-.17,1.57-.23.55-.05,1.17-.08,1.88-.08,1.9,0,4.1.28,6.6.83,2.5.55,4.82,1.53,6.98,2.92,2.15,1.4,3.98,3.33,5.48,5.78,1.5,2.45,2.25,5.53,2.25,9.22v16.2Z"/>
      <path class="cls-1" d="m88.8,108.9h-1.5c-2.3,0-4.55-.27-6.75-.83-2.2-.55-4.18-1.5-5.93-2.85-1.75-1.35-3.18-3.12-4.27-5.33-1.1-2.2-1.65-4.9-1.65-8.1v-40.35c0-5.5,1.32-10,3.98-13.5,2.65-3.5,6.98-5.25,12.98-5.25,4,0,7.3,1.02,9.9,3.04,2.6,2.03,3.9,5.27,3.9,9.72,0,1.49-.2,2.58-.6,3.28-1.4-1.2-2.9-1.8-4.5-1.8-2.2,0-3.67.75-4.42,2.26-.75,1.5-1.12,3.11-1.12,4.81v54.88Zm13.35-76.05c.5-.1,1-.15,1.5-.15h1.5c5.4,0,9.6,1.38,12.6,4.12,3,2.75,4.5,6.68,4.5,11.78v8.25c0,6.8-1.7,11.85-5.1,15.15-3.4,3.3-7.55,4.95-12.45,4.95h-1.05c-3.8-.2-6.88-1.47-9.23-3.82-2.35-2.35-3.52-5.18-3.52-8.48,0-.5.02-.95.07-1.35.05-.4.23-1,.52-1.8.8.8,1.5,1.4,2.1,1.8.6.4,1.6.6,3,.6,2.3,0,3.8-.83,4.5-2.48.7-1.65,1.05-3.57,1.05-5.77v-22.8Zm19.5,61.5c0,2.8-.48,5.13-1.43,6.97-.95,1.85-2.17,3.35-3.67,4.5-1.5,1.15-3.15,1.95-4.95,2.4-1.8.45-3.55.67-5.25.67-5.1,0-8.7-1.25-10.8-3.75-2.1-2.5-3.15-5.3-3.15-8.4,0-.5.02-1.1.07-1.8.05-.7.27-1.45.68-2.25,1.3,1.2,2.8,1.8,4.5,1.8,2.4-.2,3.8-1,4.2-2.4.4-1.4.6-3.15.6-5.25v-5.55c1.5-.4,3.3-.6,5.4-.6,2.6,0,4.77.4,6.52,1.2,1.75.8,3.17,1.85,4.28,3.15,1.1,1.3,1.88,2.77,2.32,4.43.45,1.65.68,3.28.68,4.88Z"/>
      <path class="cls-1" d="m155.1,85.5c0,1.2.07,2.35.23,3.45.15,1.1.45,2.08.9,2.93.45.85,1.1,1.55,1.95,2.1.85.55,2.03.82,3.53.82.8,0,1.62-.12,2.47-.38.85-.25,1.62-.67,2.33-1.27.4.8.65,1.58.75,2.33.1.75.15,1.53.15,2.32,0,3.2-1.35,5.85-4.05,7.95-2.7,2.1-5.95,3.15-9.75,3.15-6,0-10.6-1.6-13.8-4.8-3.2-3.2-4.8-7.2-4.8-12v-41.7c0-3.3.62-6.08,1.88-8.33,1.25-2.25,2.85-4.07,4.8-5.47,1.95-1.4,4.1-2.4,6.45-3,2.35-.6,4.67-.9,6.98-.9v52.8Zm14.1-29.4c0-1.2-.08-2.35-.23-3.45-.15-1.1-.45-2.07-.9-2.92-.45-.85-1.1-1.55-1.95-2.1-.85-.55-2.02-.83-3.52-.83-.8,0-1.63.13-2.48.38-.85.25-1.63.68-2.33,1.27-.4-.8-.65-1.57-.75-2.32-.1-.75-.15-1.52-.15-2.33,0-3.2,1.35-5.85,4.05-7.95,2.7-2.1,5.95-3.15,9.75-3.15,6,0,10.6,1.53,13.8,4.58,3.2,3.05,4.8,7.42,4.8,13.12v58.5c-2.3,0-4.63-.27-6.97-.83-2.35-.55-4.5-1.5-6.45-2.85-1.95-1.35-3.55-3.15-4.8-5.4-1.25-2.25-1.88-5.12-1.88-8.62v-35.1Z"/>
      <path class="cls-1" d="m222.9,85.95c0,1,.02,2.05.08,3.15.05,1.1.25,2.1.6,3,.35.9.87,1.65,1.57,2.25.7.6,1.7.9,3,.9,1.6,0,2.82-.42,3.68-1.27.85-.85,1.47-1.58,1.88-2.18.2.6.38,1.5.52,2.7.15,1.2.23,2.2.23,3,0,3.8-1.28,6.65-3.83,8.55-2.55,1.9-5.92,2.85-10.12,2.85-5.5,0-9.83-1.7-12.98-5.1-3.15-3.4-4.73-9-4.73-16.8V18.15c0-2.5.32-4.85.98-7.05.65-2.2,1.67-4.12,3.07-5.78,1.4-1.65,3.23-2.95,5.48-3.9,2.25-.95,4.97-1.42,8.18-1.42.4,0,.8.03,1.2.07.4.05.8.08,1.2.08v85.8Zm2.55-52.5h.3c.2,0,.65-.02,1.35-.07.7-.05,1.8-.08,3.3-.08h6.75c.1.3.15,1.05.15,2.25,0,3.8-.9,6.78-2.7,8.93-1.8,2.15-4.85,3.22-9.15,3.22v-14.25Z"/>
      <path class="cls-1" d="m268.35,108.9h-1.5c-2.6,0-5.1-.25-7.5-.75-2.4-.5-4.53-1.4-6.38-2.7-1.85-1.3-3.35-3.1-4.5-5.4-1.15-2.3-1.72-5.3-1.72-9V18c0-3.6.55-6.55,1.65-8.85,1.1-2.3,2.55-4.12,4.35-5.48s3.85-2.3,6.15-2.85c2.3-.55,4.65-.82,7.05-.82h2.4v108.9Zm35.1-75.6c0,3.8-.75,6.9-2.25,9.3-1.5,2.4-3.33,4.3-5.48,5.7-2.15,1.4-4.48,2.38-6.97,2.93-2.5.55-4.7.82-6.6.82-.7,0-1.33-.02-1.88-.07-.55-.05-1.08-.12-1.58-.23v-26.55c0-1.1-.03-2.22-.08-3.38-.05-1.15-.22-2.2-.53-3.15-.3-.95-.75-1.73-1.35-2.32-.6-.6-1.5-.9-2.7-.9-1.6,0-2.55.5-2.85,1.5-.3-1.3-.45-2.6-.45-3.9s.2-2.7.6-4.2c.4-1.5,1.12-2.9,2.18-4.2,1.05-1.3,2.42-2.4,4.12-3.3,1.7-.9,3.9-1.35,6.6-1.35,6,0,10.7,1.95,14.1,5.85,3.4,3.9,5.1,8.7,5.1,14.4v13.05Zm0,55.35c0,6.3-1.63,11.25-4.88,14.85-3.25,3.6-7.88,5.4-13.88,5.4-4.2,0-7.58-1.02-10.12-3.08-2.55-2.05-3.83-5.07-3.83-9.07,0-.7.08-1.52.22-2.48.15-.95.38-1.82.68-2.62.4,1.2,1.2,1.8,2.4,1.8s2.1-.3,2.7-.9,1.05-1.37,1.35-2.32c.3-.95.47-2,.53-3.15.05-1.15.08-2.27.08-3.38v-29.7c.5-.1,1.02-.17,1.58-.23.55-.05,1.17-.08,1.88-.08,1.9,0,4.1.28,6.6.83,2.5.55,4.82,1.53,6.97,2.92,2.15,1.4,3.98,3.33,5.48,5.78,1.5,2.45,2.25,5.53,2.25,9.22v16.2Z"/>
      <path class="cls-1" d="m335.54,85.2c0,1.2.08,2.35.23,3.45.15,1.1.45,2.08.9,2.92.45.85,1.1,1.55,1.95,2.1.85.55,2.03.83,3.53.83.8,0,1.62-.12,2.47-.38.85-.25,1.62-.68,2.33-1.27.4.8.65,1.57.75,2.32.1.75.15,1.53.15,2.33,0,3.2-1.3,5.9-3.9,8.1-2.6,2.2-6.15,3.3-10.65,3.3-5.4,0-9.73-1.6-12.97-4.8-3.25-3.2-4.88-8.1-4.88-14.7v-56.55h.9c6,0,10.7,1.42,14.1,4.27,3.4,2.85,5.1,7.42,5.1,13.73v34.35Zm34.2,23.4h-1.65c-5.2,0-9.58-1.37-13.12-4.12-3.55-2.75-5.33-7.22-5.33-13.43v-58.2h.9c2.2,0,4.45.3,6.75.9,2.3.6,4.37,1.57,6.23,2.92,1.85,1.35,3.35,3.13,4.5,5.33,1.15,2.2,1.72,4.85,1.72,7.95v58.65Z"/>
      <path class="cls-1" d="m383.25,49.2c0-4.8,1.6-8.75,4.8-11.85,3.2-3.1,7.8-4.65,13.8-4.65,3.8,0,7.05,1.05,9.75,3.15,2.7,2.1,4.05,4.75,4.05,7.95,0,.8-.05,1.58-.15,2.33-.1.75-.35,1.53-.75,2.32-1.4-1.1-3-1.65-4.8-1.65h-.6c-2.3.2-3.88,1.05-4.72,2.55-.85,1.5-1.28,3.35-1.28,5.55v30.15c0,3.3.6,5.75,1.8,7.35,1.2,1.6,2.8,2.4,4.8,2.4,1.8,0,3.35-.55,4.65-1.65.7,1.4,1.05,2.95,1.05,4.65,0,3.2-1.35,5.85-4.05,7.95-2.7,2.1-5.95,3.15-9.75,3.15-6,0-10.6-1.58-13.8-4.73-3.2-3.15-4.8-8.17-4.8-15.07v-39.9ZM417.45,0h1.8c2.5,0,4.88.3,7.12.9s4.2,1.6,5.85,3c1.65,1.4,2.95,3.33,3.9,5.77.95,2.45,1.42,5.53,1.42,9.23v73.8c0,2.4-.48,4.6-1.42,6.6-.95,2-2.25,3.7-3.9,5.1-1.65,1.4-3.6,2.5-5.85,3.3-2.25.8-4.68,1.2-7.28,1.2h-1.65V0Z"/>
      <path class="cls-1" d="m469.64,71.4h-1.35c-2.3,0-4.58-.27-6.83-.83-2.25-.55-4.25-1.5-6-2.85-1.75-1.35-3.18-3.12-4.27-5.33-1.1-2.2-1.65-4.9-1.65-8.1v-3.9c0-3.6.6-6.55,1.8-8.85,1.2-2.3,2.75-4.1,4.65-5.4,1.9-1.3,4.05-2.2,6.45-2.7,2.4-.5,4.8-.75,7.2-.75v38.7Zm-19.35,23.1c0-3.1.6-5.62,1.8-7.58,1.2-1.95,2.65-3.47,4.35-4.57,1.7-1.1,3.5-1.82,5.4-2.18,1.9-.35,3.55-.52,4.95-.52,1.2,0,2.2.1,3,.3v6.9c0,2.1.5,3.65,1.5,4.65,1,1,2.25,1.5,3.75,1.5,1.8,0,3.4-.6,4.8-1.8.3.8.47,1.53.53,2.18.05.65.08,1.38.08,2.17,0,1.2-.23,2.58-.68,4.12-.45,1.55-1.25,3-2.4,4.35-1.15,1.35-2.65,2.5-4.5,3.45-1.85.95-4.18,1.42-6.98,1.42s-5.02-.42-6.97-1.27c-1.95-.85-3.55-1.97-4.8-3.38-1.25-1.4-2.2-2.95-2.85-4.65-.65-1.7-.97-3.4-.97-5.1Zm51.6-48.6c0,3.2-.6,5.75-1.8,7.65-1.2,1.9-2.65,3.4-4.35,4.5-1.7,1.1-3.5,1.83-5.4,2.18-1.9.35-3.55.52-4.95.52-1.2,0-2.2-.1-3-.3v-6.9c0-2.1-.5-3.65-1.5-4.65-1-1-2.25-1.5-3.75-1.5-1.9,0-3.5.6-4.8,1.8-.3-.8-.48-1.52-.52-2.17-.05-.65-.08-1.37-.08-2.17,0-1.2.2-2.57.6-4.12.4-1.55,1.15-3,2.25-4.35,1.1-1.35,2.6-2.5,4.5-3.45,1.9-.95,4.3-1.42,7.2-1.42,2.7,0,5.03.43,6.97,1.27,1.95.85,3.55,1.98,4.8,3.38,1.25,1.4,2.2,2.95,2.85,4.65.65,1.7.97,3.4.97,5.1Zm-19.5,24.3h1.35c2.3,0,4.58.28,6.83.83,2.25.55,4.25,1.5,6,2.85,1.75,1.35,3.17,3.13,4.27,5.32,1.1,2.2,1.65,4.9,1.65,8.1v3.9c0,3.6-.6,6.55-1.8,8.85-1.2,2.3-2.75,4.1-4.65,5.4-1.9,1.3-4.05,2.2-6.45,2.7-2.4.5-4.8.75-7.2.75v-38.7Z"/>
    </g>
  </g>
</svg>